<?xml version="1.0" encoding="UTF-8"?>
<svg id="Capa_4" data-name="Capa 4" xmlns="http://www.w3.org/2000/svg" viewBox="0 0 636.08 562.16">
  <defs>
    <style>
      .cls-1 {
        fill: #fff;
      }
    </style>
  </defs>
  <path d="M300.58,243.92c4.44-13.97,8.41-26.44,12.98-40.78-68.08,0-134.36,.01-200.64,0-52.84-.01-74.77-16.58-90.97-66.83-5.61-17.41-16.15-33.52-19.92-51.18C-8.05,37.93,20.35,4.9,68.91,4.86c93.64-.08,187.28,.16,280.91-.12,32.24-.1,56.93,12.15,76.1,38.65,56.63,78.28,114.27,155.83,171.37,233.78,26.18,35.74,40.1,75.31,38.69,120.25-1.08,34.5-.12,69.06-.24,103.59-.13,34.66-23.03,59.6-57.57,60.45-40.49,1-81.03,.85-121.52,.04-29.22-.58-51.66-21.6-57.08-51.23-.71-3.89-1.71-8.11-.94-11.84,8.56-41.68-10.92-62.69-48.78-77.63-27.48-10.84-53.15-20.42-83.32-18.9-37.76,1.91-75.86-1.85-113.49,1.03-50.32,3.85-90.59-36.44-66.35-101.47,13.62-36.55,44.78-57.11,84.63-57.46,42.46-.37,84.93-.08,129.26-.08Zm35.56-158.26c.04,1.87,.07,3.74,.11,5.61-7.27,.59-14.54,1.68-21.8,1.69-75.01,.13-150.03-.07-225.04,.17-27.48,.09-37.56,14.94-29.02,41.41,6.35,19.67,20,29.61,41.53,29.63,73.02,.09,146.04-.16,219.07,.15,27.49,.12,39.72,17.08,31.7,43-4.87,15.74-11.19,31.07-15.49,46.96-5.54,20.5-18.13,29.02-39.12,28.72-43.14-.61-86.3-.43-129.44-.09-28.42,.23-49.72,21.61-50.85,50.06-.86,21.75,7.15,30.39,28.75,30.43,51.78,.09,103.56-.1,155.34,.19,7.06,.04,14.84,.64,21.03,3.6,32.65,15.6,65.54,30.94,96.87,48.93,8.28,4.76,14.45,18.14,16.05,28.42,2.63,16.85,.54,34.41,.78,51.67,.24,17.3,7.71,27.03,26.6,26.75,35.84-.53,71.69-.02,107.54-.21,21.46-.11,26.71-5.34,26.86-27.29,.25-35.18-.38-70.37,.09-105.55,.46-33.83-10.93-63.58-30.44-90.31-57.72-79.05-115.46-158.1-174.38-236.25-7.07-9.37-21.4-18.61-32.5-18.77-99.55-1.45-199.14-.79-298.71-.92-14.96-.02-22.91,8.7-22.96,21.76-.05,12.82,4.25,25.66,6.63,38.5,1.84,.54,3.68,1.08,5.51,1.62,10.09-20.52,27.49-21.34,46.11-21.23,73.02,.43,146.04,.15,219.06,.22,6.71,0,13.41,.71,20.11,1.09Z"/>
  <path class="cls-1" d="M336.13,85.67c-6.7-.38-13.41-1.08-20.11-1.09-73.02-.08-146.05,.2-219.06-.22-18.62-.11-36.03,.71-46.11,21.23-1.84-.54-3.68-1.08-5.51-1.62-2.39-12.83-6.68-25.67-6.63-38.5,.05-13.07,8-21.78,22.96-21.76,99.58,.13,199.16-.53,298.71,.92,11.1,.16,25.43,9.39,32.5,18.77,58.92,78.15,116.67,157.19,174.38,236.25,19.52,26.73,30.9,56.48,30.44,90.31-.48,35.18,.15,70.37-.09,105.55-.15,21.94-5.4,27.17-26.86,27.29-35.85,.19-71.7-.33-107.54,.21-18.89,.28-26.37-9.45-26.6-26.75-.24-17.26,1.85-34.82-.78-51.67-1.6-10.29-7.78-23.67-16.05-28.42-31.33-18-64.22-33.33-96.87-48.93-6.2-2.96-13.98-3.56-21.03-3.6-51.78-.29-103.56-.09-155.34-.19-21.59-.04-29.61-8.69-28.75-30.43,1.13-28.45,22.42-49.83,50.85-50.06,43.15-.34,86.3-.52,129.44,.09,20.99,.3,33.58-8.22,39.12-28.72,4.29-15.89,10.61-31.21,15.49-46.96,8.02-25.93-4.22-42.89-31.7-43-73.02-.31-146.04-.06-219.07-.15-21.53-.03-35.19-9.96-41.53-29.63-8.54-26.47,1.53-41.32,29.02-41.41,75.01-.25,150.03-.04,225.04-.17,7.27-.01,14.54-1.1,21.8-1.69-.04-1.87-.07-3.74-.11-5.61Z"/>
</svg>