<?xml version="1.0" encoding="UTF-8"?>
<svg id="Capa_2" data-name="Capa 2" xmlns="http://www.w3.org/2000/svg" viewBox="0 0 484.69 534.81">
  <defs>
    <style>
      .cls-1 {
        fill: #fff;
      }
    </style>
  </defs>
  <path d="M410.18,113.69c35.09,3.07,62.76,17.23,72.98,54.39,.5,1.82,1.56,3.64,1.52,5.44-1.44,67.99-1.32,136.08-5.22,203.94-1.83,31.78-11.92,63.04-17.37,94.68-6.85,39.72-32.67,62.46-73.08,62.55-63.74,.15-127.48,.2-191.21-.03-28.77-.1-52.53-10.14-70.31-34.25-36.11-48.96-73.62-96.89-109.64-145.9-36.7-49.93-14.54-110.52,45.68-123.07,15.21-3.17,32.11,1.78,50.99,3.21,0-24.19-.47-50.54,.14-76.87,.51-22.12-.37-44.77,4.1-66.2,6.68-32,34.86-51.91,67.34-54,6.84-.44,15.29-4.14,19.72-9.21,33.6-38.45,81.89-37.84,114.4,1.94,2.85,3.49,7.54,7.01,11.79,7.61,54.6,7.66,71.54,23.65,78.16,75.77ZM151.93,341.25c-16.37-21.5-29.04-38.09-41.66-54.74-16.63-21.94-39.64-26.5-59.37-11.72-17.53,13.14-18.55,37.93-2.44,59.51,35.71,47.85,71.57,95.57,107.01,143.62,9.88,13.39,22.12,19.67,38.86,19.56,56.76-.4,113.52,0,170.27-.2,41.09-.15,53.23,9.68,66.79-51.7,19.32-87.47,17.89-175.27,16.42-263.44-.41-24.83-25.04-38.19-46.49-27.08-12.76,6.61-20.03,16.86-19.8,32.11,.4,26.16,.11,52.33,.11,78.5-1.92,.08-3.83,.17-5.75,.25-.34-6.44-.96-12.88-.98-19.32-.09-43.37,.32-86.74-.2-130.1-.3-25.41-14.51-41.22-35.18-41.17-21.5,.04-34.43,15.32-34.45,40.9-.04,44.64,.04,89.28-.08,133.92-.01,5.35-.95,10.69-1.46,16.03-1.75-.2-3.49-.41-5.24-.61,0-8.19,0-16.38,0-24.57,0-54.21,.31-108.42-.15-162.62-.22-25.41-14.42-41.3-35.02-41.34-21.54-.04-34.6,15.24-34.62,40.74-.04,56.76,.02,113.52-.07,170.27,0,6.02-.78,12.05-1.2,18.07-1.84-.18-3.67-.37-5.51-.55v-18.65c0-41.45,.2-82.91-.17-124.36-.07-8.1-1.22-16.55-3.77-24.21-5.92-17.8-21.18-26.31-38.72-22.89-15.01,2.93-27.02,17.7-27.06,34.69-.18,75.07-.08,150.13-.08,231.1Z"/>
  <path class="cls-1" d="M151.93,341.25c0-80.96-.1-156.03,.08-231.1,.04-16.98,12.05-31.76,27.06-34.69,17.53-3.42,32.79,5.09,38.72,22.89,2.55,7.66,3.7,16.1,3.77,24.21,.36,41.45,.17,82.9,.17,124.36v18.65c1.84,.18,3.67,.37,5.51,.55,.42-6.02,1.19-12.05,1.2-18.07,.09-56.76,.03-113.52,.07-170.27,.02-25.49,13.07-40.77,34.62-40.74,20.6,.04,34.8,15.93,35.02,41.34,.46,54.2,.15,108.41,.15,162.62,0,8.19,0,16.38,0,24.57,1.75,.2,3.49,.41,5.24,.61,.51-5.34,1.45-10.69,1.46-16.03,.12-44.64,.04-89.28,.08-133.92,.02-25.58,12.95-40.86,34.45-40.9,20.67-.04,34.88,15.76,35.18,41.17,.52,43.36,.11,86.73,.2,130.1,.01,6.44,.64,12.88,.98,19.32,1.92-.08,3.83-.17,5.75-.25,0-26.17,.29-52.34-.11-78.5-.23-15.24,7.04-25.5,19.8-32.11,21.44-11.11,46.07,2.25,46.49,27.08,1.47,88.17,2.9,175.97-16.42,263.44-13.56,61.38-25.7,51.55-66.79,51.7-56.76,.21-113.52-.2-170.27,.2-16.75,.12-28.98-6.16-38.86-19.56-35.44-48.04-71.3-95.77-107.01-143.62-16.1-21.58-15.09-46.37,2.44-59.51,19.72-14.79,42.74-10.22,59.37,11.72,12.61,16.64,25.29,33.23,41.66,54.74Z"/>
</svg>