<?xml version="1.0" encoding="UTF-8"?>
<svg id="Capa_3" data-name="Capa 3" xmlns="http://www.w3.org/2000/svg" viewBox="0 0 555.56 550.86">
  <defs>
    <style>
      .cls-1 {
        fill: #fff;
      }
    </style>
  </defs>
  <path d="M92.33,95.87c10.28-57.97,52.9-86.3,109.24-74.95,7.17,1.45,16.7-.96,23.11-4.88,32.48-19.87,64.74-21.64,98.46-3.24,4.81,2.63,12.88,2.04,18.44,.09C378.59-.05,410.93,6.16,439.39,33.64c4.22,4.08,11.41,7.04,17.29,7.15,64.49,1.2,94.16,32.06,98.05,96.35,4.74,78.36-11.52,153.02-31.99,227.58-7.3,26.6-12.02,54.06-15.96,81.41-5.15,35.71-29.96,61.43-65.84,61.83-78.01,.86-156.03,.76-234.04,.06-35.06-.31-59.4-24.35-66.7-58.9-2.32-11-9.94-22.22-18.09-30.4-30.51-30.61-62.08-60.17-93.58-89.77C10.76,312.22,.7,292.43,.65,267.74c-.04-23.16-.78-46.32-.64-69.48,.4-64.59,27.02-94.38,92.31-102.39Zm333.15,39.54c-2.14,.09-4.28,.18-6.42,.27-.8-15.57-.88-31.22-2.58-46.69-2.47-22.4-21.69-40.35-41.06-39.69-22.88,.78-40.45,19.85-40.8,44.54-.2,13.96-.04,27.92-.04,41.88-2.55,.08-5.1,.16-7.65,.24-.76-8.51-2.07-17-2.18-25.52-.57-43.76-16.42-65.93-47.61-66.01-31.27-.08-47.08,22.02-47.68,65.77-.12,8.66-2.03,17.29-3.11,25.94-2.22-.26-4.44-.52-6.67-.78,0-7.58,.04-15.17,0-22.75-.18-32.35-14.61-49.83-41.15-49.89-26.64-.06-41.21,16.93-41.57,49.92-.43,39.42-.04,78.85-.21,118.28-.03,6.18-1.12,12.36-1.73,18.53-6.3-5.38-7.87-10.81-7.98-16.26-.34-17,.31-34.03-.26-51.02-.7-20.87-17.5-38.61-37.19-40.29-21.29-1.82-41.38,11.17-43.08,33-2.5,32.2-2.23,64.81-.16,97.05,.64,10.01,9.35,21.02,17.14,28.78,31.73,31.64,65.42,61.34,96.44,93.63,10.38,10.81,16.78,26.58,21.68,41.2,5.36,15.97,10.39,27.87,30.66,27.68,74.21-.68,148.43-.54,222.64-.08,18.48,.12,25.64-8.9,28.93-25.82,8.48-43.61,15.47-87.78,27.99-130.27,17.3-58.69,20.75-118.05,17.98-178.28-1.24-26.94-16.15-42.16-39.1-42.83-24.8-.72-40.17,13.74-43.46,40.79-.35,2.92-1.17,5.78-1.77,8.66Z"/>
  <path class="cls-1" d="M425.48,135.41c.6-2.89,1.42-5.75,1.77-8.66,3.28-27.05,18.65-41.51,43.46-40.79,22.95,.67,37.87,15.89,39.1,42.83,2.77,60.23-.68,119.59-17.98,178.28-12.52,42.49-19.51,86.66-27.99,130.27-3.29,16.92-10.44,25.94-28.93,25.82-74.21-.46-148.43-.6-222.64,.08-20.27,.19-25.3-11.71-30.66-27.68-4.9-14.62-11.3-30.39-21.68-41.2-31.02-32.29-64.72-61.99-96.44-93.63-7.79-7.77-16.5-18.77-17.14-28.78-2.07-32.24-2.34-64.85,.16-97.05,1.7-21.84,21.79-34.82,43.08-33,19.69,1.68,36.49,19.42,37.19,40.29,.57,16.99-.09,34.02,.26,51.02,.11,5.45,1.68,10.88,7.98,16.26,.6-6.18,1.7-12.35,1.73-18.53,.17-39.43-.22-78.86,.21-118.28,.36-32.99,14.93-49.98,41.57-49.92,26.54,.06,40.97,17.54,41.15,49.89,.04,7.58,0,15.17,0,22.75,2.22,.26,4.44,.52,6.67,.78,1.08-8.65,2.99-17.28,3.11-25.94,.6-43.75,16.41-65.85,47.68-65.77,31.19,.08,47.04,22.25,47.61,66.01,.11,8.51,1.42,17.01,2.18,25.52,2.55-.08,5.1-.16,7.65-.24,0-13.96-.16-27.92,.04-41.88,.35-24.69,17.93-43.75,40.8-44.54,19.37-.66,38.59,17.29,41.06,39.69,1.7,15.47,1.78,31.12,2.58,46.69,2.14-.09,4.28-.18,6.42-.27Z"/>
</svg>