<?xml version="1.0" encoding="UTF-8"?>
<svg id="Capa_5" data-name="Capa 5" xmlns="http://www.w3.org/2000/svg" viewBox="0 0 636.08 562.16">
  <defs>
    <style>
      .cls-1 {
        fill: #fff;
      }
    </style>
  </defs>
  <path d="M187.65,311.28c-4.67-19.79-9.69-39.51-13.93-59.4-6.92-32.52-15.69-64.9-19.23-97.82-3.16-29.35,15.51-52.79,44.03-62.28,9.19-3.06,14.39-6.53,17.61-16.65,8.42-26.5,34.15-43.5,61.74-43.33,28.26,.17,54.36,17.89,62.08,45.4,11.24,40.03,20.49,80.62,32.02,126.68,4.93-18.88,8.66-33.01,12.31-47.15,4.74-18.39,8.71-37.01,14.29-55.13,8.97-29.14,33.1-47.08,62.24-47.67,26.54-.54,51.23,16.99,62.81,43.08,2.47,5.56,8.27,11.58,13.87,13.5,39.85,13.65,56.82,45.29,46.25,87.52-9.39,37.5-19.11,74.94-27.42,112.69-12.62,57.3-23.74,114.93-36.31,172.24-7.16,32.64-30.86,51.48-63.99,51.67-62.94,.36-125.92,1.2-188.81-.65-16.25-.48-34.53-6.9-47.91-16.27-47.41-33.2-93.14-68.8-139.42-103.6-32.61-24.52-40.21-68.04-17.72-100.35,21.45-30.82,62.86-38.46,97.18-17.6,8.45,5.13,16.25,11.33,24.34,17.04,1.32-.64,2.65-1.27,3.97-1.91Zm37.94,76.72c-27.89-20.69-54.96-39.32-80.29-60.08-17.35-14.22-43.03-11.16-55.51,6.07-11.41,15.73-6.12,40.41,11.62,53.78,42.89,32.31,86.02,64.3,128.85,96.69,14.35,10.85,29.48,15.88,48.03,15.53,56.94-1.09,113.91-.38,170.87-.4,26.14,0,33.99-5.73,39.45-31.36,11.13-52.19,21.14-104.63,32.56-156.76,9.16-41.83,19.67-83.37,29.69-125.02,4.99-20.75-4.4-38.32-23.32-43.17-15.99-4.1-33.73,7.54-39.13,26.29-3.12,10.85-5.19,22-7.87,32.98-6.51,26.66-13.1,53.29-19.65,79.94-1.64-.4-3.27-.81-4.91-1.21,6.81-28,13.87-55.95,20.34-84.02,5.75-24.92,12.12-49.81,15.77-75.07,2.38-16.51-10.75-30.99-25.98-33.52-14.82-2.46-30.71,7.93-35.78,23.58-1.46,4.52-2.53,9.17-3.64,13.8-12.46,51.92-24.88,103.84-37.4,156.1-4.67,.28-8.27,.11-11.72,.76-17.59,3.33-24.67-4.43-28.45-21.57-12.3-55.75-26.06-111.18-39.93-166.57-1.9-7.59-6.11-15.84-11.78-20.99-10.64-9.66-23.74-10.41-36.25-2.54-16.57,10.42-16.93,26.73-13.19,43.03,8.37,36.51,17.92,72.74,26.69,109.16,4.55,18.92,8.46,37.99,12.67,56.99-4.76-2.39-6.34-5.51-7.15-8.83-9.7-39.89-18.4-80.06-29.5-119.55-2.86-10.18-11.27-22.31-20.38-26.52-23.03-10.64-46.64,9.37-41.74,35.43,6.58,35.02,15.99,69.5,24.3,104.19,9.43,39.37,20.26,78.57,12.73,122.86Z"/>
  <path class="cls-1" d="M225.59,387.99c7.54-44.28-3.3-83.48-12.73-122.86-8.31-34.69-17.71-69.18-24.3-104.19-4.9-26.06,18.7-46.08,41.74-35.43,9.11,4.21,17.52,16.35,20.38,26.52,11.1,39.49,19.8,79.66,29.5,119.55,.81,3.31,2.38,6.44,7.15,8.83-4.2-19-8.11-38.07-12.67-56.99-8.77-36.42-18.32-72.65-26.69-109.16-3.74-16.3-3.37-32.61,13.19-43.03,12.51-7.87,25.61-7.13,36.25,2.54,5.67,5.15,9.88,13.4,11.78,20.99,13.86,55.39,27.62,110.82,39.93,166.57,3.78,17.14,10.86,24.9,28.45,21.57,3.45-.65,7.05-.49,11.72-.76,12.52-52.26,24.95-104.19,37.4-156.1,1.11-4.63,2.17-9.28,3.64-13.8,5.07-15.64,20.96-26.03,35.78-23.58,15.24,2.53,28.37,17,25.98,33.52-3.65,25.26-10.02,50.14-15.77,75.07-6.47,28.08-13.54,56.02-20.34,84.02,1.64,.4,3.27,.81,4.91,1.21,6.56-26.64,13.15-53.28,19.65-79.94,2.68-10.98,4.75-22.13,7.87-32.98,5.39-18.75,23.13-30.39,39.13-26.29,18.92,4.85,28.31,22.42,23.32,43.17-10.01,41.64-20.52,83.18-29.69,125.02-11.42,52.13-21.43,104.57-32.56,156.76-5.47,25.63-13.31,31.35-39.45,31.36-56.96,.02-113.93-.69-170.87,.4-18.56,.36-33.68-4.67-48.03-15.53-42.83-32.39-85.96-64.38-128.85-96.69-17.74-13.37-23.03-38.05-11.62-53.78,12.49-17.22,38.16-20.28,55.51-6.07,25.33,20.76,52.4,39.39,80.29,60.08Z"/>
</svg>