<?xml version="1.0" encoding="UTF-8"?>
<svg id="Capa_1" data-name="Capa 1" xmlns="http://www.w3.org/2000/svg" viewBox="0 0 465.11 400.92">
  <defs>
    <style>
      .cls-1 {
        fill: #fff;
      }
    </style>
  </defs>
  <path d="M132.11,266.19c-22.13,0-43.26,.2-64.39-.04C27.83,265.69,0,238.33,0,199.84c0-38.74,27.53-66.07,67.28-66.71,6.66-.11,13.33-.02,20.86-.02-11.97-9.5-25.15-16.64-33.72-27.44-20.35-25.66-19.32-55.43-.02-81.15C70.76,2.73,100.8-5.99,129.09,4.31c46.58,16.98,92.64,35.43,139.38,51.95,15.27,5.4,31.87,8.57,48.05,9.5,26.66,1.54,53.47,.71,80.21,.36,41.52-.54,69.67,36.01,68.33,68.19-2.36,56.74-.66,113.65-.66,170.48,0,35.27-14.46,56.08-49.06,65.65-58.43,16.16-116.58,33.74-178.67,29.96-37.4-2.28-58.35-17.52-68.08-53.67-1.79-6.65-6.31-13.45-11.42-18.16-17.56-16.17-19.11-18.8-25.06-62.38Zm127.1,97.63c.17,1.01,.34,2.02,.51,3.04,2.69,.17,5.37,.37,8.06,.51,47.89,2.49,91.86-15.55,137.11-26.58,20.6-5.02,29.84-17.4,30.01-38.26,.43-55.13,.59-110.27-.06-165.4-.29-24.83-18.83-41.06-40.22-38.6-15.39,1.77-31.42,2.17-46.68-.08-23.87-3.51-40.75,6.89-54.91,23.46-7.58,8.87-17.47,19.14-18.5,29.56-2.64,26.47-.85,53.38-.89,80.11-.02,15.24,9.57,23.97,22.25,27.74,13.46,4,26.08-1.18,31.99-14.32,4.13-9.18,5.63-19.9,6.51-30.09,1.07-12.4,.25-24.97,.25-37.47,2.03,.16,4.06,.31,6.09,.47-3.05,27.06,8.26,55.96-13.73,80.92,18.49,7.2,30.55,19.21,29.83,38.68-.73,19.68-14.77,29.31-31.69,36.41-22.25,9.33-43.99,19.88-65.95,29.9Zm-30.37-198.02c-54.29,0-108.26-.06-162.22,.03-20.36,.03-37.68,16.34-37.02,34.51,.65,18.1,17.08,33.06,36.73,33.13,31.2,.11,62.52-1.74,93.55,.51,33.35,2.43,63.13-5.8,92.24-20.57,10.89-5.52,18.03-11.12,15.77-24.91-5.64-34.42,2.94-63.58,33.38-83.88,1.09-.73,1.37-2.67,1.9-3.79-8.28-2.14-16.38-3.49-23.92-6.31-52.63-19.65-105.03-39.89-157.73-59.34-22.46-8.29-41.86-.16-48.01,18.61-6.71,20.49,3.24,37.69,26.06,46.33,39.67,15.02,79.01,30.95,118.94,45.25,10.3,3.69,13.35,8.34,10.34,20.42Zm87.54,100.09c-3.79,1.4-11.1,3.63-18.02,6.74-19.14,8.59-38.11,17.55-57.16,26.34-9,4.15-18.57,7.36-26.91,12.55-14.18,8.82-18.39,25.25-11.31,39.07,7.46,14.56,21.5,20.26,37.72,13.9,16.91-6.63,33.37-14.4,49.96-21.83,14.09-6.31,28.66-11.85,41.93-19.6,11.64-6.8,20.75-16.63,16.71-32.46-3.87-15.15-12.64-24.23-32.92-24.7Zm-17.28-.44c-30.63-7.51-32.19-28.77-32.35-52.32-31.7,14.47-60.42,26.78-88.34,40.68-12.52,6.24-17,23.76-11.85,35.89,5.64,13.26,20.93,23.25,32.63,18.56,32-12.81,63.42-27.05,99.92-42.81Z"/>
  <path class="cls-1" d="M259.21,363.82c21.96-10.02,43.7-20.57,65.95-29.9,16.92-7.1,30.97-16.73,31.69-36.41,.72-19.47-11.34-31.49-29.83-38.68,21.99-24.96,10.68-53.85,13.73-80.92-2.03-.16-4.06-.31-6.09-.47,0,12.5,.82,25.06-.25,37.47-.88,10.19-2.38,20.91-6.51,30.09-5.91,13.14-18.53,18.31-31.99,14.32-12.68-3.77-22.28-12.49-22.25-27.74,.04-26.73-1.75-53.64,.89-80.11,1.04-10.42,10.93-20.69,18.5-29.56,14.16-16.58,31.04-26.98,54.91-23.46,15.26,2.25,31.29,1.84,46.68,.08,21.39-2.46,39.93,13.77,40.22,38.6,.64,55.13,.49,110.27,.06,165.4-.16,20.86-9.41,33.24-30.01,38.26-45.25,11.04-89.23,29.07-137.11,26.58-2.69-.14-5.37-.34-8.06-.51-.17-1.01-.34-2.02-.51-3.04Z"/>
  <path class="cls-1" d="M228.84,165.8c3.01-12.08-.04-16.73-10.34-20.42-39.93-14.3-79.27-30.23-118.94-45.25-22.82-8.64-32.77-25.84-26.06-46.33,6.14-18.77,25.54-26.9,48.01-18.61,52.7,19.45,105.11,39.69,157.73,59.34,7.55,2.82,15.64,4.17,23.92,6.31-.53,1.11-.81,3.06-1.9,3.79-30.44,20.31-39.02,49.47-33.38,83.88,2.26,13.78-4.88,19.38-15.77,24.91-29.12,14.77-58.89,22.99-92.24,20.57-31.03-2.26-62.36-.4-93.55-.51-19.66-.07-36.08-15.03-36.73-33.13-.65-18.18,16.66-34.48,37.02-34.51,53.97-.09,107.94-.03,162.22-.03Z"/>
  <path class="cls-1" d="M316.38,265.89c20.28,.48,29.05,9.55,32.92,24.7,4.04,15.83-5.08,25.66-16.71,32.46-13.26,7.75-27.84,13.29-41.93,19.6-16.59,7.43-33.05,15.2-49.96,21.83-16.22,6.36-30.26,.66-37.72-13.9-7.08-13.81-2.87-30.24,11.31-39.07,8.34-5.19,17.91-8.4,26.91-12.55,19.05-8.79,38.02-17.76,57.16-26.34,6.92-3.1,14.23-5.34,18.02-6.74Z"/>
  <path class="cls-1" d="M299.1,265.45c-36.5,15.77-67.92,30-99.92,42.81-11.7,4.69-26.99-5.31-32.63-18.56-5.16-12.12-.68-29.65,11.85-35.89,27.92-13.9,56.64-26.21,88.34-40.68,.17,23.55,1.72,44.8,32.35,52.32Z"/>
</svg>