<svg width="72" height="72" viewBox="0 0 72 72" fill="none" xmlns="http://www.w3.org/2000/svg">
<path fill-rule="evenodd" clip-rule="evenodd" d="M36 6C19.4314 6 6 19.4314 6 36C6 52.5686 19.4314 66 36 66C52.5686 66 66 52.5686 66 36C66 19.4314 52.5686 6 36 6ZM0 36C0 16.1178 16.1178 0 36 0C55.8822 0 72 16.1178 72 36C72 55.8822 55.8822 72 36 72C16.1178 72 0 55.8822 0 36Z" fill="white"/>
<path fill-rule="evenodd" clip-rule="evenodd" d="M28.7749 68.2074C28.4847 67.8328 28.4847 64.4959 28.7749 58.197C25.6671 58.3044 23.7036 58.0887 22.8844 57.55C21.6555 56.742 20.4253 54.25 19.3336 52.4938C18.2421 50.7376 15.8194 50.46 14.8411 50.0674C13.8627 49.6747 13.6171 48.0744 17.5369 49.2847C21.4566 50.4951 21.6478 53.791 22.8844 54.5617C24.1209 55.3324 27.0772 54.9952 28.4172 54.3778C29.7573 53.7604 29.6586 51.4617 29.8975 50.551C30.1996 49.701 29.1349 49.5124 29.1115 49.5055C27.8032 49.5055 20.9308 48.0109 19.0432 41.3559C17.1555 34.701 19.5871 30.3511 20.8843 28.4812C21.7492 27.2346 21.6727 24.5778 20.6548 20.5105C24.3502 20.0383 27.202 21.2014 29.2101 24.0001C29.212 24.0162 31.8427 22.4358 36.0004 22.4358C40.158 22.4358 41.6329 23.7231 42.7713 24.0001C43.9096 24.2772 44.82 19.1011 51.8502 20.5105C50.3824 23.3953 49.1533 27.0001 50.0914 28.4812C51.0297 29.9623 54.7117 34.672 52.4499 41.3559C50.9421 45.8119 47.9779 48.5284 43.5576 49.5055C43.0507 49.6672 42.7972 49.9282 42.7972 50.2882C42.7972 50.8284 43.4826 50.8873 44.4697 53.4175C45.1279 55.1043 45.1755 59.922 44.6124 67.8705C43.1859 68.2336 42.0762 68.4774 41.2831 68.602C39.877 68.823 38.3503 68.9469 36.8503 68.9947C35.3503 69.0426 34.8294 69.0372 32.7555 68.8441C31.3731 68.7154 30.0462 68.5032 28.7749 68.2074Z" fill="white"/>
</svg>
